v 36.0 0.0 -192.0
v 48.0 0.0 -0.0
v 48.0 112.0 -0.0
v 36.0 84.0 -192.0
v 64.0 112.0 -0.0
v 64.0 0.0 -0.0
v 48.0 0.0 -192.0
v 48.0 84.0 -192.0
v -48.0 84.0 -192.0
v -64.0 112.0 -0.0
v -64.0 128.0 -0.0
v -48.0 96.0 -192.0
v 64.0 128.0 -0.0
v 48.0 96.0 -192.0
v -48.0 0.0 -192.0
v -64.0 0.0 -0.0
v -48.0 112.0 -0.0
v -48.0 0.0 -0.0
v -36.0 0.0 -192.0
v -36.0 84.0 -192.0
v 36.0 0.0 -48.0
v 36.0 84.0 -48.0
v 48.0 84.0 -48.0
v 48.0 0.0 -48.0
v -48.0 0.0 -48.0
v -48.0 84.0 -48.0
v -36.0 84.0 -48.0
v -36.0 0.0 -48.0
v -36.0 96.0 -48.0
v -36.0 96.0 -192.0
v 36.0 96.0 -48.0
v 36.0 96.0 -192.0
vt 6.0 -0.0
vt 0.0 -0.0
vt 0.0 3.5
vt 6.0 2.625
vt 1.0 1.75
vt 0.75 1.75
vt 0.75 -0.0
vt 1.0 -0.0
vt 2.0 -0.0
vt 1.5 -0.0
vt 1.125 6.0
vt 1.5 6.0
vt 1.125 -0.0
vt 1.125 2.625
vt 1.5 2.625
vt 3.0 1.3125
vt 0.0 1.75
vt 3.0 -0.0
vt 0.0 2.0
vt 3.0 1.5
vt 1.0 2.0
vt -1.0 2.0
vt -1.0 1.75
vt -2.0 -0.0
vt -1.5 6.0
vt 0.75 3.0
vt -0.75 3.0
vt -1.0 -0.0
vt 0.75 1.3125
vt -0.75 1.3125
vt -0.75 1.5
vt 0.75 1.5
vt -0.75 1.75
vt -0.75 -0.0
vt -1.5 -0.0
vt -1.125 6.0
vt -1.125 -0.0
vt -1.5 2.625
vt -1.125 2.625
vt 1.5 1.5
vt 1.125 1.5
vt 0.5625 -0.0
vt 0.5625 1.3125
vt -1.125 1.5
vt -1.5 1.5
vt -0.5625 -0.0
vt -0.5625 1.3125
vt 1.5 3.0
vt 6.0 3.0
vt 1.125 3.0
vt -1.125 3.0
vt 0.5625 0.75
vt -0.5625 0.75
vt -0.5625 3.0
vt 0.5625 3.0
vn -0.9980525784828885 0.0 0.06237828615518053
vn 0.0 0.0 1.0
vn 0.0 -1.0 -0.0
vn 0.0 0.9895329810632816 -0.14430689307172856
vn 0.0 -0.0 -1.0
vn 0.9965457582448797 -0.0 -0.08304547985373997
vn -0.9965457582448796 0.0 -0.08304547985373997
vn 0.0 -0.9895329810632816 0.14430689307172856
vn 0.0 0.9863939238321437 -0.1643989873053573
vn 0.9980525784828885 0.0 0.06237828615518053
vn -1.0 0.0 0.0
vn 0.0 1.0 -0.0
vn 1.0 0.0 0.0
o frame
f 22/52/3 27/53/3 20/54/3 4/55/3
f 15/18/7 16/2/7 10/17/7 9/16/7
f 9/16/7 10/17/7 11/19/7 12/20/7
f 20/16/13 27/29/13 28/7/13 19/18/13
f 14/26/9 12/27/9 11/28/9 13/8/9
f 1/18/11 21/7/11 22/29/11 4/16/11
f 19/46/5 15/34/5 9/30/5 20/47/5
f 8/29/5 9/30/5 12/31/5 14/32/5
f 8/16/6 5/17/6 6/2/6 7/18/6
f 14/20/6 13/19/6 5/17/6 8/16/6
f 13/21/2 11/22/2 10/23/2 5/5/2
f 17/33/2 10/23/2 16/28/2 18/34/2
f 7/7/5 1/42/5 4/43/5 8/29/5
f 5/5/2 3/6/2 2/7/2 6/8/2
